<svg width="56" height="52" viewBox="0 0 56 52" fill="none" xmlns="http://www.w3.org/2000/svg">
<g filter="url(#filter0_d_107_278)">
<path d="M49.6 22.128C49.6 8.952 39.376 0 28 0C16.744 0 6.4 8.76 6.4 22.272C4.96 23.088 4 24.624 4 26.4V31.2C4 33.84 6.16 36 8.8 36H11.2V21.36C11.2 12.072 18.712 4.56 28 4.56C37.288 4.56 44.8 12.072 44.8 21.36V38.4H25.6V43.2H44.8C47.44 43.2 49.6 41.04 49.6 38.4V35.472C51.016 34.728 52 33.264 52 31.536V26.016C52 24.336 51.016 22.872 49.6 22.128Z" fill="#1849D6"/>
<path d="M20.8 26.4001C22.1255 26.4001 23.2 25.3256 23.2 24.0001C23.2 22.6746 22.1255 21.6001 20.8 21.6001C19.4745 21.6001 18.4 22.6746 18.4 24.0001C18.4 25.3256 19.4745 26.4001 20.8 26.4001Z" fill="#1849D6"/>
<path d="M35.2 26.4001C36.5255 26.4001 37.6 25.3256 37.6 24.0001C37.6 22.6746 36.5255 21.6001 35.2 21.6001C33.8745 21.6001 32.8 22.6746 32.8 24.0001C32.8 25.3256 33.8745 26.4001 35.2 26.4001Z" fill="#1849D6"/>
<path d="M42.4 19.2721C41.8278 15.898 40.0802 12.8352 37.4667 10.6258C34.8532 8.41639 31.5423 7.20288 28.12 7.20007C20.848 7.20007 13.024 13.2241 13.648 22.6801C16.6076 21.469 19.2214 19.5444 21.2566 17.078C23.2918 14.6115 24.685 11.6797 25.312 8.54407C28.456 14.8561 34.912 19.2001 42.4 19.2721Z" fill="#1849D6"/>
</g>
<defs>
<filter id="filter0_d_107_278" x="0" y="0" width="56" height="51.2" filterUnits="userSpaceOnUse" color-interpolation-filters="sRGB">
<feFlood flood-opacity="0" result="BackgroundImageFix"/>
<feColorMatrix in="SourceAlpha" type="matrix" values="0 0 0 0 0 0 0 0 0 0 0 0 0 0 0 0 0 0 127 0" result="hardAlpha"/>
<feOffset dy="4"/>
<feGaussianBlur stdDeviation="2"/>
<feComposite in2="hardAlpha" operator="out"/>
<feColorMatrix type="matrix" values="0 0 0 0 0 0 0 0 0 0 0 0 0 0 0 0 0 0 0.25 0"/>
<feBlend mode="normal" in2="BackgroundImageFix" result="effect1_dropShadow_107_278"/>
<feBlend mode="normal" in="SourceGraphic" in2="effect1_dropShadow_107_278" result="shape"/>
</filter>
</defs>
</svg>
