<svg width="48" height="48" viewBox="0 0 48 48" fill="none" xmlns="http://www.w3.org/2000/svg">
<path d="M4.98774 37.8188H12.0278V30.7788C12.0278 29.9188 12.7278 29.2187 13.5898 29.2187H20.6298V22.1787C20.6298 21.3147 21.3298 20.6127 22.1918 20.6127H29.2319V13.5747C29.2319 12.7106 29.9319 12.0106 30.7959 12.0106H37.8339V4.9726C37.8339 4.1086 38.5339 3.40859 39.3979 3.40859H46.438C47.298 3.40859 48 4.1086 48 4.9726V46.4209C48 47.2849 47.3 47.9849 46.436 47.9849H4.98774C4.57294 47.9849 4.17513 47.8201 3.88182 47.5268C3.58851 47.2335 3.42373 46.8357 3.42373 46.4209V39.3808C3.42373 38.5208 4.12374 37.8208 4.98774 37.8208V37.8188ZM0.343715 31.8488C0.123634 31.6286 0 31.3301 0 31.0188C0 30.7075 0.123634 30.4089 0.343715 30.1888L30.2039 0.328575C30.4254 0.115157 30.7218 -0.00280745 31.0294 5.07526e-05C31.337 0.00290895 31.6311 0.126362 31.8486 0.343859C32.0661 0.561356 32.1896 0.855524 32.1924 1.1631C32.1953 1.47067 32.0773 1.76708 31.8639 1.98858L2.00373 31.8488C1.54372 32.3088 0.803718 32.3088 0.343715 31.8488Z" fill="#1849D6"/>
</svg>
