<svg width="18" height="18" viewBox="0 0 18 18" fill="none" xmlns="http://www.w3.org/2000/svg">
<path fill-rule="evenodd" clip-rule="evenodd" d="M9.00001 0C7.21997 0 5.47991 0.527841 3.99987 1.51677C2.51983 2.50571 1.36628 3.91131 0.685087 5.55585C0.00389814 7.20038 -0.17433 9.00998 0.172937 10.7558C0.520204 12.5016 1.37737 14.1053 2.63604 15.364C3.89471 16.6226 5.49836 17.4798 7.24419 17.8271C8.99002 18.1743 10.7996 17.9961 12.4442 17.3149C14.0887 16.6337 15.4943 15.4802 16.4832 14.0001C17.4722 12.5201 18 10.78 18 9C18 7.8181 17.7672 6.64778 17.3149 5.55585C16.8626 4.46392 16.1997 3.47177 15.364 2.63604C14.5282 1.80031 13.5361 1.13738 12.4442 0.685084C11.3522 0.232792 10.1819 0 9.00001 0ZM3.78 10.84C3.41609 10.84 3.06034 10.7321 2.75775 10.5299C2.45517 10.3277 2.21933 10.0404 2.08006 9.70413C1.9408 9.36792 1.90436 8.99796 1.97536 8.64103C2.04636 8.28411 2.2216 7.95625 2.47893 7.69892C2.73625 7.44159 3.06411 7.26635 3.42104 7.19535C3.77796 7.12436 4.14792 7.16079 4.48414 7.30006C4.82036 7.43932 5.10773 7.67516 5.30991 7.97775C5.51209 8.28034 5.62 8.63608 5.62 9C5.62 9.24163 5.57241 9.4809 5.47994 9.70413C5.38748 9.92737 5.25194 10.1302 5.08108 10.3011C4.91022 10.4719 4.70738 10.6075 4.48414 10.6999C4.2609 10.7924 4.02164 10.84 3.78 10.84ZM9.00001 10.84C8.63652 10.838 8.28176 10.7284 7.98049 10.5251C7.67922 10.3217 7.44494 10.0336 7.30721 9.69723C7.16948 9.36085 7.13446 8.99121 7.20659 8.63494C7.27871 8.27868 7.45473 7.95176 7.71246 7.69543C7.97018 7.4391 8.29805 7.26485 8.6547 7.19466C9.01135 7.12447 9.3808 7.16148 9.71643 7.30104C10.0521 7.44059 10.3388 7.67643 10.5406 7.9788C10.7423 8.28116 10.85 8.63651 10.85 9C10.85 9.24247 10.8021 9.48256 10.709 9.70645C10.6159 9.93035 10.4795 10.1336 10.3076 10.3046C10.1356 10.4756 9.93161 10.6109 9.70721 10.7028C9.48282 10.7947 9.24248 10.8413 9.00001 10.84ZM14.23 10.84C13.8661 10.84 13.5103 10.7321 13.2078 10.5299C12.9052 10.3277 12.6693 10.0404 12.5301 9.70413C12.3908 9.36792 12.3544 8.99796 12.4254 8.64103C12.4964 8.28411 12.6716 7.95625 12.9289 7.69892C13.1863 7.44159 13.5141 7.26635 13.871 7.19535C14.228 7.12436 14.5979 7.16079 14.9341 7.30006C15.2704 7.43932 15.5577 7.67516 15.7599 7.97775C15.9621 8.28034 16.07 8.63608 16.07 9C16.0701 9.48284 15.8803 9.94636 15.5417 10.2906C15.2031 10.6348 14.7428 10.8321 14.26 10.84H14.23Z" fill="#455065"/>
</svg>
