<svg width="18" height="18" viewBox="0 0 18 18" fill="none" xmlns="http://www.w3.org/2000/svg">
<path fill-rule="evenodd" clip-rule="evenodd" d="M3.99987 1.51677C5.47992 0.52784 7.21997 0 9 0C11.387 0 13.6761 0.948212 15.364 2.63604C17.0518 4.32387 18 6.61305 18 9C18 10.78 17.4722 12.5201 16.4832 14.0001C15.4943 15.4802 14.0887 16.6337 12.4442 17.3149C10.7996 17.9961 8.99002 18.1743 7.24419 17.8271C5.49836 17.4798 3.89472 16.6226 2.63604 15.364C1.37737 14.1053 0.520204 12.5016 0.172937 10.7558C-0.17433 9.00998 0.00389952 7.20038 0.685088 5.55585C1.36628 3.91131 2.51983 2.50571 3.99987 1.51677ZM14.139 14.5466C14.2368 14.5056 14.3256 14.4456 14.4 14.37C14.5502 14.2183 14.6345 14.0135 14.6345 13.8C14.6345 13.5865 14.5502 13.3817 14.4 13.23L11.63 10.46C12.2692 9.53617 12.5398 8.40666 12.3885 7.29348C12.2372 6.18029 11.675 5.16396 10.8124 4.44424C9.94983 3.72452 8.84922 3.35348 7.72694 3.40405C6.60467 3.45461 5.54189 3.92313 4.74751 4.71751C3.95314 5.51188 3.48462 6.57466 3.43405 7.69694C3.38349 8.81921 3.75453 9.91982 4.47425 10.7824C5.19396 11.645 6.2103 12.2072 7.32348 12.3585C8.43667 12.5098 9.56618 12.2392 10.49 11.6L13.26 14.37C13.3344 14.4456 13.4232 14.5056 13.521 14.5466C13.6189 14.5876 13.7239 14.6087 13.83 14.6087C13.9361 14.6087 14.0411 14.5876 14.139 14.5466ZM4.93354 7.30688C5.05132 6.71339 5.34241 6.16815 5.77 5.74006C6.05352 5.45434 6.39079 5.22756 6.76237 5.07281C7.13395 4.91805 7.53248 4.83838 7.935 4.83838C8.33752 4.83838 8.73605 4.91805 9.10763 5.07281C9.47921 5.22756 9.81648 5.45434 10.1 5.74006C10.5276 6.16815 10.8187 6.71339 10.9365 7.30688C11.0542 7.90036 10.9934 8.51545 10.7617 9.07438C10.53 9.63332 10.1378 10.111 9.63468 10.4471C9.13154 10.7832 8.54006 10.9625 7.935 10.9625C7.32994 10.9625 6.73846 10.7832 6.23532 10.4471C5.73219 10.111 5.33998 9.63332 5.10827 9.07438C4.87656 8.51545 4.81576 7.90036 4.93354 7.30688Z" fill="#455065"/>
</svg>
