<svg width="24" height="24" viewBox="0 0 24 24" fill="none" xmlns="http://www.w3.org/2000/svg">
<path d="M12 0C5.373 0 0 5.373 0 12C0 18.627 5.373 24 12 24C18.627 24 24 18.627 24 12C24 5.373 18.627 0 12 0ZM17.802 16.045C17.8413 16.0844 17.8724 16.1312 17.8935 16.1827C17.9147 16.2342 17.9253 16.2893 17.925 16.345C17.9258 16.4007 17.9153 16.456 17.8942 16.5076C17.873 16.5591 17.8417 16.6059 17.802 16.645L16.645 17.807C16.6057 17.8465 16.559 17.8777 16.5074 17.8989C16.4559 17.92 16.4007 17.9306 16.345 17.93C16.2328 17.9297 16.1251 17.8856 16.045 17.807L12 13.757L7.96 17.812C7.92114 17.8521 7.87447 17.8838 7.82286 17.9051C7.77126 17.9265 7.71583 17.937 7.66 17.936C7.54778 17.9357 7.44012 17.8916 7.36 17.813L6.205 16.65C6.16551 16.6107 6.13421 16.5639 6.11292 16.5124C6.09164 16.4609 6.08079 16.4057 6.081 16.35C6.08016 16.2942 6.09072 16.2388 6.11204 16.1872C6.13337 16.1356 6.165 16.0889 6.205 16.05L10.26 11.979L6.193 7.96C6.113 7.87945 6.06811 7.77053 6.06811 7.657C6.06811 7.54347 6.113 7.43455 6.193 7.354L7.35 6.193C7.38939 6.15369 7.43619 6.12257 7.48768 6.10146C7.53918 6.08035 7.59435 6.06966 7.65 6.07C7.70565 6.06966 7.76082 6.08035 7.81232 6.10146C7.86381 6.12257 7.91061 6.15369 7.95 6.193L12.005 10.195L16.061 6.193C16.1004 6.15369 16.1472 6.12257 16.1987 6.10146C16.2502 6.08035 16.3053 6.06966 16.361 6.07C16.4167 6.06966 16.4718 6.08035 16.5233 6.10146C16.5748 6.12257 16.6216 6.15369 16.661 6.193L17.818 7.355C17.898 7.43555 17.9429 7.54447 17.9429 7.658C17.9429 7.77153 17.898 7.88045 17.818 7.961L13.752 11.979L17.802 16.045Z" fill="#F05359"/>
</svg>
