<?xml version="1.0" encoding="utf-8"?><svg viewBox="0 0 310 310" xmlns="http://www.w3.org/2000/svg" xmlns:xlink="http://www.w3.org/1999/xlink"><style>:root>svg{display:none}:root>svg:target{display:block}</style><svg viewBox="0 0 24 24" id="green-round" xmlns="http://www.w3.org/2000/svg"><path fill-rule="evenodd" clip-rule="evenodd" d="M12 0C5.373 0 0 5.373 0 12s5.373 12 12 12 12-5.373 12-12S18.627 0 12 0zm5.201 9.97a1.093 1.093 0 00-.502-1.76 1.091 1.091 0 00-1.173.365l-4.691 5.628-2.427-2.429a1.09 1.09 0 00-1.543 1.543l3.273 3.273a1.091 1.091 0 001.609-.074L17.2 9.971z"/></svg><svg viewBox="0 0 48 48" id="offers1" xmlns="http://www.w3.org/2000/svg"><path d="M33.6 0H14.4C6.458 0 0 6.458 0 14.4v31.2A2.4 2.4 0 002.4 48h31.2C41.542 48 48 41.542 48 33.6V14.4C48 6.458 41.542 0 33.6 0zm-12 34.594l-8.897-8.897 3.394-3.394 5.503 5.503 11.503-11.503 3.394 3.394L21.6 34.594z"/></svg><svg viewBox="0 0 56 52" id="offers2" xmlns="http://www.w3.org/2000/svg"><g filter="url(#ca)"><path d="M49.6 22.128C49.6 8.952 39.376 0 28 0 16.744 0 6.4 8.76 6.4 22.272A4.723 4.723 0 004 26.4v4.8C4 33.84 6.16 36 8.8 36h2.4V21.36c0-9.288 7.512-16.8 16.8-16.8s16.8 7.512 16.8 16.8V38.4H25.6v4.8h19.2c2.64 0 4.8-2.16 4.8-4.8v-2.928c1.416-.744 2.4-2.208 2.4-3.936v-5.52c0-1.68-.984-3.144-2.4-3.888z"/><path d="M20.8 26.4a2.4 2.4 0 100-4.8 2.4 2.4 0 000 4.8zm14.4 0a2.4 2.4 0 100-4.8 2.4 2.4 0 000 4.8z"/><path d="M42.4 19.272A14.496 14.496 0 0028.12 7.2c-7.272 0-15.096 6.024-14.472 15.48A19.381 19.381 0 0025.312 8.544c3.144 6.312 9.6 10.656 17.088 10.728z"/></g><defs><filter id="ca" x="0" y="0" width="56" height="51.2" filterUnits="userSpaceOnUse" color-interpolation-filters="sRGB"><feFlood flood-opacity="0" result="BackgroundImageFix"/><feColorMatrix in="SourceAlpha" values="0 0 0 0 0 0 0 0 0 0 0 0 0 0 0 0 0 0 127 0" result="hardAlpha"/><feOffset dy="4"/><feGaussianBlur stdDeviation="2"/><feComposite in2="hardAlpha" operator="out"/><feColorMatrix values="0 0 0 0 0 0 0 0 0 0 0 0 0 0 0 0 0 0 0.25 0"/><feBlend in2="BackgroundImageFix" result="effect1_dropShadow_107_278"/><feBlend in="SourceGraphic" in2="effect1_dropShadow_107_278" result="shape"/></filter></defs></svg><svg viewBox="0 0 48 48" id="offers3" xmlns="http://www.w3.org/2000/svg"><path d="M4.988 37.819h7.04v-7.04c0-.86.7-1.56 1.562-1.56h7.04v-7.04c0-.864.7-1.566 1.562-1.566h7.04v-7.038c0-.864.7-1.564 1.564-1.564h7.038V4.973c0-.864.7-1.564 1.564-1.564h7.04c.86 0 1.562.7 1.562 1.564V46.42c0 .864-.7 1.564-1.564 1.564H4.988a1.564 1.564 0 01-1.564-1.564v-7.04c0-.86.7-1.56 1.564-1.56v-.002zm-4.644-5.97a1.174 1.174 0 010-1.66L30.204.329a1.174 1.174 0 011.66 1.66l-29.86 29.86c-.46.46-1.2.46-1.66 0z"/></svg><svg viewBox="0 0 18 18" id="perfect1" xmlns="http://www.w3.org/2000/svg"><path fill-rule="evenodd" clip-rule="evenodd" d="M9 0a9 9 0 100 18A9 9 0 009 0zm3.901 7.478a.818.818 0 10-1.257-1.047l-3.518 4.22-1.82-1.82a.818.818 0 00-1.157 1.157l2.454 2.454a.819.819 0 001.207-.055l4.091-4.909z"/></svg><svg viewBox="0 0 18 18" id="perfect2" xmlns="http://www.w3.org/2000/svg"><path fill-rule="evenodd" clip-rule="evenodd" d="M9 0a9 9 0 100 18A9 9 0 009 0zM3.78 10.84a1.84 1.84 0 110-3.68 1.84 1.84 0 010 3.68zm5.22 0a1.84 1.84 0 11.02-3.682A1.84 1.84 0 019 10.84zm5.23 0a1.84 1.84 0 11.03 0h-.03z"/></svg><svg viewBox="0 0 18 18" id="perfect3" xmlns="http://www.w3.org/2000/svg"><path fill-rule="evenodd" clip-rule="evenodd" d="M4 1.517a9 9 0 1110 14.966A9 9 0 014 1.517zm10.139 13.03a.81.81 0 00.261-1.317l-2.77-2.77a4.5 4.5 0 10-1.14 1.14l2.77 2.77a.8.8 0 00.879.177zm-9.205-7.24A3.06 3.06 0 015.77 5.74a3.05 3.05 0 014.33 0 3.06 3.06 0 11-5.166 1.567z"/></svg><svg viewBox="0 0 24 24" id="red-round" xmlns="http://www.w3.org/2000/svg"><path d="M12 0C5.373 0 0 5.373 0 12s5.373 12 12 12 12-5.373 12-12S18.627 0 12 0zm5.802 16.045a.421.421 0 01.123.3.414.414 0 01-.123.3l-1.157 1.162a.418.418 0 01-.3.123.43.43 0 01-.3-.123L12 13.757l-4.04 4.055a.407.407 0 01-.3.124.43.43 0 01-.3-.123L6.205 16.65a.421.421 0 01-.124-.3.41.41 0 01.124-.3l4.055-4.071L6.193 7.96a.43.43 0 010-.606L7.35 6.193a.421.421 0 01.462-.092.421.421 0 01.138.092l4.055 4.002 4.056-4.002a.421.421 0 01.462-.092.421.421 0 01.138.092l1.157 1.162a.43.43 0 010 .606l-4.066 4.018 4.05 4.066z"/></svg><svg viewBox="0 0 48 48" id="youtube" xmlns="http://www.w3.org/2000/svg"><path d="M45.012 34.56c-.439 2.24-2.304 3.947-4.608 4.267C36.783 39.36 30.748 40 23.945 40c-6.693 0-12.728-.64-16.459-1.173-2.304-.32-4.17-2.027-4.608-4.267C2.439 32.107 2 28.48 2 24s.439-8.107.878-10.56c.439-2.24 2.304-3.947 4.608-4.267C11.107 8.64 17.142 8 23.945 8s12.728.64 16.459 1.173c2.304.32 4.17 2.027 4.608 4.267.439 2.453.988 6.08.988 10.56-.11 4.48-.549 8.107-.988 10.56z"/><path d="M32.352 22.44l-11.436-7.624a1.868 1.868 0 00-1.925-.093c-.611.327-.991.96-.991 1.653v15.248a1.874 1.874 0 002.915 1.561l11.436-7.624c.523-.349.835-.932.835-1.56a1.871 1.871 0 00-.834-1.561z" opacity=".05"/><path d="M20.681 15.237l10.79 7.194c.689.495 1.153.938 1.153 1.513s-.224.976-.715 1.334c-.371.27-11.045 7.364-11.045 7.364-.901.604-2.364.476-2.364-1.499V16.744c0-2.005 1.584-1.905 2.181-1.507z" opacity=".07"/><path d="M19 31.568V16.433a.93.93 0 011.447-.774l11.352 7.568a.93.93 0 010 1.549l-11.352 7.568A.931.931 0 0119 31.568z"/></svg><svg viewBox="0 0 310 310" id="youtube-btn" xmlns="http://www.w3.org/2000/svg"><path d="M297.917 64.645c-11.19-13.302-31.85-18.728-71.306-18.728H83.386c-40.359 0-61.369 5.776-72.517 19.938C0 79.663 0 100.008 0 128.166v53.669c0 54.551 12.896 82.248 83.386 82.248h143.226c34.216 0 53.176-4.788 65.442-16.527C304.633 235.518 310 215.863 310 181.835v-53.669c0-29.695-.841-50.16-12.083-63.521zm-98.896 97.765l-65.038 33.991a9.997 9.997 0 01-14.632-8.863v-67.764a10 10 0 0114.609-8.874l65.038 33.772a10 10 0 01.023 17.738z"/></svg></svg>