<svg width="183" height="36" viewBox="0 0 183 36" fill="none" xmlns="http://www.w3.org/2000/svg">
<path d="M43.3007 24.9575C43.0027 24.7078 42.6559 24.523 42.2825 24.4151C41.909 24.3072 41.5172 24.2785 41.1321 24.3309C40.7469 24.3832 40.377 24.5155 40.0458 24.7192C39.7147 24.9229 39.4296 25.1936 39.209 25.5139C39.211 25.4992 39.2123 25.4844 39.2129 25.469C39.1829 25.5299 39.1514 25.5908 39.1193 25.6517C39.0642 25.743 39.0144 25.8373 38.9701 25.9343C37.5622 28.5493 35.566 30.8006 33.1392 32.5103C30.7124 34.22 27.9216 35.3411 24.9874 35.785C22.0532 36.2289 19.056 35.9834 16.2329 35.068C13.4098 34.1525 10.8382 32.5923 8.72122 30.5105C10.4718 28.1228 11.646 25.3616 12.1517 22.4434C12.6574 19.5253 12.4809 16.5295 11.636 13.6911C10.7911 10.8527 9.30078 8.24881 7.28193 6.08371C5.26308 3.91862 2.77061 2.25119 0 1.21218C2.89548 0.129031 6.00995 -0.235973 9.07705 0.148391C12.1442 0.532756 15.0726 1.65505 17.612 3.41929C20.1514 5.18353 22.2262 7.53722 23.6589 10.2791C25.0916 13.0209 25.8396 16.0694 25.8389 19.1637C25.8389 19.7419 25.8137 20.3143 25.7633 20.8809C26.5025 19.717 27.5552 18.7858 28.8 18.1947C30.0448 17.6035 31.4311 17.3765 32.7992 17.5398C34.1672 17.703 35.4614 18.2499 36.5325 19.1174C37.6036 19.9849 38.4081 21.1377 38.8533 22.4429C38.9817 22.4315 39.1114 22.4259 39.2425 22.4262C40.0877 22.4258 40.9161 22.6628 41.6334 23.1103C42.3507 23.5578 42.9281 24.1979 43.3001 24.9577L43.3007 24.9575Z" fill="#1849D6"/>
<path d="M55.1625 10.0673H59.6723L67.6952 32.499H63.4807L61.5838 26.7008H53.2346L51.3377 32.499H47.1399L55.1625 10.0673ZM54.2452 23.6074H60.5727L57.463 14.0625H57.3697L54.2452 23.6074Z" fill="#1849D6"/>
<path d="M66.9039 16.0211H71.0242L74.849 28.908H74.9424L78.7515 16.0211H82.794L76.9945 32.498H72.7344L66.9039 16.0211Z" fill="#1849D6"/>
<path d="M84.6933 11.9706C84.6863 11.5867 84.7937 11.2093 85.0018 10.8866C85.2099 10.5639 85.5093 10.3104 85.8619 10.1583C86.2146 10.0062 86.6045 9.96243 86.9821 10.0325C87.3597 10.1027 87.7079 10.2835 87.9824 10.552C88.2569 10.8206 88.4453 11.1647 88.5236 11.5406C88.602 11.9165 88.5667 12.3072 88.4223 12.663C88.2779 13.0188 88.0309 13.3236 87.7128 13.5387C87.3946 13.7537 87.0196 13.8693 86.6356 13.8707C86.383 13.8744 86.1322 13.828 85.8977 13.7344C85.6631 13.6407 85.4494 13.5015 85.2688 13.3249C85.0883 13.1483 84.9444 12.9377 84.8457 12.7052C84.7469 12.4728 84.6951 12.2231 84.6933 11.9706ZM84.6933 16.0213H88.5646V32.4982H84.6933V16.0213Z" fill="#1849D6"/>
<path d="M91.1928 27.8042V27.7731C91.1928 24.8507 93.4632 23.0942 97.4587 22.8455L101.765 22.5809V21.4463C101.765 19.783 100.676 18.7726 98.7172 18.7726C96.8825 18.7726 95.7629 19.6276 95.5142 20.8401L95.483 20.9802H91.8923L91.9078 20.7935C92.1411 17.8711 94.6753 15.6792 98.8577 15.6792C102.978 15.6792 105.637 17.8554 105.637 21.1667V32.4992H101.765V29.9652H101.672C100.724 31.6908 98.8626 32.4952 96.686 32.4952C93.3898 32.4952 91.1928 30.7415 91.1928 27.8042ZM97.8628 29.8253C100.086 29.8253 101.765 28.3484 101.765 26.3896V25.146L98.0028 25.3796C96.0904 25.5041 95.0487 26.3279 95.0487 27.6336V27.649C95.0487 29.0014 96.1681 29.8253 97.8628 29.8253Z" fill="#1849D6"/>
<path d="M108.749 16.0211H112.62V18.6014H112.699C113.554 16.8293 115.233 15.679 117.736 15.679C121.359 15.679 123.426 18.0108 123.426 21.8348V32.4998H119.555V22.6125C119.555 20.2642 118.467 18.9437 116.259 18.9437C114.036 18.9437 112.621 20.5605 112.621 22.9389V32.4992H108.749V16.0211Z" fill="#1849D6"/>
<path d="M127.035 10.0673H135.027C138.976 10.0673 141.573 12.2903 141.573 15.6014V15.6327C141.584 16.8418 141.165 18.0154 140.39 18.9439C139.615 19.8724 138.535 20.4952 137.344 20.701V20.7478C140.514 21.1209 142.739 23.2349 142.739 26.3286V26.3597C142.739 30.1682 139.987 32.5 135.011 32.5H127.035V10.0673ZM129.149 11.9483V20.0317H133.985C137.39 20.0317 139.426 18.4929 139.426 15.8344V15.8033C139.426 13.3938 137.622 11.9483 134.575 11.9483H129.149ZM129.149 21.8661V30.6181H134.716C138.588 30.6181 140.562 29.033 140.562 26.2808V26.2497C140.562 23.4359 138.339 21.8663 134.53 21.8663L129.149 21.8661Z" fill="#1849D6"/>
<path d="M145.773 10.0673H153.406C157.682 10.0673 160.605 12.8498 160.605 17.016V17.0471C160.605 21.2131 157.682 24.0424 153.406 24.0424H147.887V32.499H145.773V10.0673ZM147.887 11.9637V22.146H152.909C156.36 22.146 158.444 20.2339 158.444 17.0626V17.0315C158.444 13.8756 156.361 11.9631 152.909 11.9631L147.887 11.9637Z" fill="#1849D6"/>
<path d="M163.064 21.2853V21.2552C163.064 14.3973 166.893 10.0564 172.953 10.0564C179.013 10.0564 182.827 14.3971 182.827 21.2552V21.2853C182.827 28.1735 179.028 32.4983 172.953 32.4983C166.878 32.4983 163.064 28.1734 163.064 21.2853ZM180.717 21.2853V21.2552C180.717 15.573 177.702 11.9706 172.953 11.9706C168.189 11.9706 165.159 15.5579 165.159 21.2552V21.2853C165.159 26.9826 168.174 30.5848 172.953 30.5848C177.747 30.585 180.717 26.9374 180.717 21.2853Z" fill="#1849D6"/>
</svg>
